<svg xmlns="http://www.w3.org/2000/svg" viewBox="0 0 739 161"><defs><style>.cls-1{fill:#fc6;stroke:#fc6;}.cls-1,.cls-2{stroke-miterlimit:10;}.cls-2{fill:#369;stroke:#369;}</style></defs><title>gati_Asset 36ldpi</title><g id="Layer_2" data-name="Layer 2"><g id="Base"><rect class="cls-1" x="0.5" y="0.5" width="738" height="160"/><path class="cls-2" d="M294.4,115.4v-2.77h16.15v2.77h-6.32v17.06h-3.51V115.4Z"/><path class="cls-2" d="M322.27,132.93a9.32,9.32,0,0,1-7-2.74c-1.77-1.82-2.65-4.37-2.65-7.63s.85-5.78,2.57-7.62a9.7,9.7,0,0,1,13.49,0c1.69,1.8,2.53,4.36,2.53,7.66v.84H316.25a7.64,7.64,0,0,0,1.9,5.1,5.6,5.6,0,0,0,4.12,1.66,6.07,6.07,0,0,0,3.33-.94,3.18,3.18,0,0,0,1.57-2.68h3.64a6.57,6.57,0,0,1-2.78,4.73A9.72,9.72,0,0,1,322.27,132.93Zm5.19-12.3a7.15,7.15,0,0,0-1.92-4.28,5.4,5.4,0,0,0-7.29,0,7,7,0,0,0-1.92,4.29Z"/><path class="cls-2" d="M336.66,112.63h15.12v19.83h-3.52V115.4h-8.07v10.33q0,4.24-1.35,5.58a5.07,5.07,0,0,1-3.75,1.34,11.92,11.92,0,0,1-2.37-.19v-2.84a7.14,7.14,0,0,0,2,.28,1.59,1.59,0,0,0,1.57-.82,8.58,8.58,0,0,0,.41-3.27Z"/><path class="cls-2" d="M371.77,116.46h-3.83v-3.83h3.83Zm0,16h-3.83v-3.83h3.83Z"/><path class="cls-2" d="M405.58,120.52h-7.49V128H395v-7.49h-7.5v-3.14H395v-7.49h3.14v7.49h7.49Z"/><path class="cls-2" d="M427.26,107.55l-10,24.91h-3.95l10.23-24.14H409.52v-3.26h17.74Z"/><path class="cls-2" d="M455.14,119.83a8.24,8.24,0,0,1-6.24,3,7.63,7.63,0,0,1-5.78-2.5,8.82,8.82,0,0,1-2.37-6.34,9.82,9.82,0,0,1,2.35-6.64,7.78,7.78,0,0,1,6.23-2.74,8,8,0,0,1,6.91,3.42q2.47,3.42,2.47,9.87,0,15-9.7,15a8,8,0,0,1-5.2-1.72,7.5,7.5,0,0,1-2.59-5.1h3.62q.45,4,4.38,4a4.6,4.6,0,0,0,4.07-2.66A17.6,17.6,0,0,0,455.14,119.83Zm0-2.71c-.05-3.15-.59-5.57-1.63-7.24a4.69,4.69,0,0,0-4.15-2.52,4.3,4.3,0,0,0-3.64,1.84,7.41,7.41,0,0,0-1.36,4.56,7.09,7.09,0,0,0,1.39,4.53,4.52,4.52,0,0,0,3.73,1.76C451.45,120.05,453.33,119.08,455.18,117.12Z"/><path class="cls-2" d="M471.06,104.6q8.94,0,8.94,14.2t-8.94,14.13q-8.91,0-8.91-14.13T471.06,104.6Zm0,25.56a4.27,4.27,0,0,0,3.95-2.5q1.33-2.5,1.34-8.86T475,109.9a4.32,4.32,0,0,0-7.87,0q-1.35,2.52-1.35,8.9t1.35,8.86A4.24,4.24,0,0,0,471.06,130.16Z"/><path class="cls-2" d="M501.23,125.92h-3.7v6.54H494v-6.54h-11.7v-3.1l12.47-18.11h2.77v18.11h3.7Zm-7.24-3.1V110.26l-8.41,12.56Z"/><path class="cls-2" d="M527.59,117.42a6.58,6.58,0,0,1,3.86,2.54,7.35,7.35,0,0,1,1.36,4.43,8,8,0,0,1-2.6,6.17,10.19,10.19,0,0,1-12.74.26,7.61,7.61,0,0,1-2.62-5.59h3.64a4.93,4.93,0,0,0,1.37,3.48,5.82,5.82,0,0,0,7.84-.14,5.78,5.78,0,0,0,1.46-4.11,5.09,5.09,0,0,0-1.52-4,6.34,6.34,0,0,0-4.44-1.39h-1.34v-2.75h.8q5.12,0,5.12-4.71a4.23,4.23,0,0,0-1.12-3.17,4.3,4.3,0,0,0-3.16-1.11c-2.79,0-4.35,1.46-4.67,4.36H515.2a7.58,7.58,0,0,1,2.66-5.3,8.62,8.62,0,0,1,5.57-1.82,8.28,8.28,0,0,1,5.83,2,6.68,6.68,0,0,1,2.17,5.13,6.32,6.32,0,0,1-.95,3.32A6,6,0,0,1,527.59,117.42Z"/><path class="cls-2" d="M548.88,117.42a6.58,6.58,0,0,1,3.86,2.54,7.41,7.41,0,0,1,1.35,4.43,8,8,0,0,1-2.59,6.17,10.2,10.2,0,0,1-12.75.26,7.6,7.6,0,0,1-2.61-5.59h3.64a4.92,4.92,0,0,0,1.36,3.48,5.82,5.82,0,0,0,7.84-.14,5.78,5.78,0,0,0,1.47-4.11,5.12,5.12,0,0,0-1.52-4,6.37,6.37,0,0,0-4.44-1.39h-1.35v-2.75H544q5.12,0,5.12-4.71a3.88,3.88,0,0,0-4.28-4.28c-2.79,0-4.35,1.46-4.67,4.36h-3.63a7.57,7.57,0,0,1,2.65-5.3,8.63,8.63,0,0,1,5.57-1.82,8.26,8.26,0,0,1,5.83,2,6.64,6.64,0,0,1,2.17,5.13,6.31,6.31,0,0,1-.94,3.32A6,6,0,0,1,548.88,117.42Z"/><path class="cls-2" d="M566.37,104.6q8.94,0,8.94,14.2t-8.94,14.13q-8.91,0-8.91-14.13T566.37,104.6Zm0,25.56a4.27,4.27,0,0,0,4-2.5q1.33-2.5,1.34-8.86t-1.34-8.9a4.32,4.32,0,0,0-7.87,0q-1.35,2.52-1.35,8.9t1.35,8.86A4.23,4.23,0,0,0,566.37,130.16Z"/><path class="cls-2" d="M606.51,132.46H588.37a8.39,8.39,0,0,1,1.55-4.78,29.36,29.36,0,0,1,5.69-5.62,36.58,36.58,0,0,0,5.67-5.32,7.24,7.24,0,0,0,1.53-4.52,4.81,4.81,0,0,0-1.3-3.56,5.62,5.62,0,0,0-7.2,0,5.47,5.47,0,0,0-1.64,3.85H589a8.42,8.42,0,0,1,2.67-5.76,8.83,8.83,0,0,1,6.21-2.16,8.64,8.64,0,0,1,6.32,2.19,7.44,7.44,0,0,1,2.22,5.51,8.81,8.81,0,0,1-1.65,5.28,40.82,40.82,0,0,1-6.53,6.36c-3.25,2.72-4.91,4.47-5,5.27h13.23Z"/><path class="cls-2" d="M622.9,117.42a6.58,6.58,0,0,1,3.86,2.54,7.35,7.35,0,0,1,1.36,4.43,8,8,0,0,1-2.6,6.17,10.2,10.2,0,0,1-12.75.26,7.63,7.63,0,0,1-2.61-5.59h3.64a4.93,4.93,0,0,0,1.37,3.48,5.82,5.82,0,0,0,7.84-.14,5.82,5.82,0,0,0,1.46-4.11,5.09,5.09,0,0,0-1.52-4,6.34,6.34,0,0,0-4.44-1.39h-1.34v-2.75h.8q5.12,0,5.12-4.71a4.23,4.23,0,0,0-1.12-3.17,4.3,4.3,0,0,0-3.16-1.11c-2.79,0-4.35,1.46-4.67,4.36h-3.63a7.58,7.58,0,0,1,2.66-5.3,8.6,8.6,0,0,1,5.57-1.82,8.28,8.28,0,0,1,5.83,2,6.67,6.67,0,0,1,2.16,5.13,6.31,6.31,0,0,1-.94,3.32A6,6,0,0,1,622.9,117.42Z"/><path class="cls-2" d="M659.5,107.55l-10,24.91h-3.94l10.22-24.14h-14v-3.26H659.5Z"/><path class="cls-2" d="M677.21,119.83a8.24,8.24,0,0,1-6.24,3,7.63,7.63,0,0,1-5.78-2.5,8.82,8.82,0,0,1-2.37-6.34,9.82,9.82,0,0,1,2.35-6.64,7.78,7.78,0,0,1,6.23-2.74,8,8,0,0,1,6.91,3.42q2.48,3.42,2.47,9.87,0,15-9.7,15a8,8,0,0,1-5.2-1.72,7.5,7.5,0,0,1-2.59-5.1h3.62q.45,4,4.38,4a4.6,4.6,0,0,0,4.07-2.66A17.46,17.46,0,0,0,677.21,119.83Zm0-2.71c0-3.15-.59-5.57-1.63-7.24a4.69,4.69,0,0,0-4.15-2.52,4.3,4.3,0,0,0-3.64,1.84,7.41,7.41,0,0,0-1.36,4.56,7.09,7.09,0,0,0,1.39,4.53,4.52,4.52,0,0,0,3.73,1.76C673.52,120.05,675.4,119.08,677.25,117.12Z"/><path class="cls-2" d="M99.45,64H93.38V23.71H69.64V64h-6V18.3H99.45Z"/><path class="cls-2" d="M128.79,64.74q-9.69,0-15.46-6.37t-5.78-17.24q0-10.87,5.78-17.24t15.46-6.37a20.26,20.26,0,0,1,12.68,4,14.63,14.63,0,0,1,5.88,10.59h-6.23a9.22,9.22,0,0,0-3.75-6.88,15.22,15.22,0,0,0-19.51,2.23q-4,4.79-4,13.66t4,13.64A15.15,15.15,0,0,0,137.39,57a10.24,10.24,0,0,0,3.73-7.48h6.23q-.65,7.29-5.73,11.28T128.79,64.74Z"/><path class="cls-2" d="M191.58,64h-6.07V23.71H161.77V64h-6V18.3h35.85Z"/><path class="cls-2" d="M242.85,32.69c1.81-1.69,4.4-2.53,7.79-2.53a11.73,11.73,0,0,1,9.62,4.67Q264,39.51,264,47.7q0,8-3.54,12.52A11.37,11.37,0,0,1,251,64.74c-3.66,0-6.37-1.16-8.16-3.46V76.66H237V61.28c-1.78,2.3-4.51,3.46-8.19,3.46a11.34,11.34,0,0,1-9.39-4.52q-3.54-4.52-3.53-12.52,0-8.19,3.7-12.87a11.73,11.73,0,0,1,9.63-4.67c3.36,0,6,.84,7.78,2.53V18.3h5.86ZM237,54.77V38q-2.36-3.24-7.16-3.24A6.56,6.56,0,0,0,224,38c-1.4,2.17-2.09,5.4-2.09,9.7q0,12.42,7.91,12.43A6.83,6.83,0,0,0,235,58C236.33,56.65,237,55.56,237,54.77ZM242.85,38V54.77a7,7,0,0,0,2.54,3.77A7.12,7.12,0,0,0,250,60.13q7.92,0,7.91-12.43,0-6.45-2.07-9.7A6.56,6.56,0,0,0,250,34.74Q245.23,34.74,242.85,38Z"/><path class="cls-2" d="M291.47,60.56a16.3,16.3,0,0,1-11.56,4.18,12.12,12.12,0,0,1-8.09-2.67,8.53,8.53,0,0,1-3.18-6.87q0-11.58,20-11.58h2.87a25.23,25.23,0,0,0-.37-5.16A4.3,4.3,0,0,0,289,35.8a10.67,10.67,0,0,0-5.45-1.06q-7.85,0-8.1,5.61H269.6q.66-10.18,14.27-10.19,6.36,0,9.9,2.53t3.56,9.9V64h-5.86Zm0-5.29V48h-4q-12.76,0-12.77,6.94a4.49,4.49,0,0,0,1.87,3.88,8.47,8.47,0,0,0,5.05,1.36,12.74,12.74,0,0,0,5.6-1.31A10.78,10.78,0,0,0,291.47,55.27Z"/><path class="cls-2" d="M306,64v-33h5.88V56.05l14.8-25.14H333V64h-5.89V38.82L312.34,64Zm22.7-46.07a8.53,8.53,0,0,1-2.88,6A9.53,9.53,0,0,1,319.47,26a9.43,9.43,0,0,1-6.38-2.14,8.35,8.35,0,0,1-2.81-6h3.83c.5,2.82,2.29,4.24,5.36,4.24s4.84-1.42,5.42-4.24Z"/><path class="cls-2" d="M344.23,30.91h25.2V64h-5.86V35.52H350.12V52.74q0,7.08-2.24,9.3a8.5,8.5,0,0,1-6.26,2.23,21.45,21.45,0,0,1-4-.31V59.22a12.24,12.24,0,0,0,3.27.47,2.66,2.66,0,0,0,2.62-1.37q.68-1.37.68-5.45Z"/><path class="cls-2" d="M425.35,59.38h4.77V72.83h-5.86V64H399.5v8.87h-5.86V59.38h2.93q5.76-8.16,5.76-26.88V30.91h23Zm-5.88-23.86H408.19q-.66,16-5.05,23.86h16.33Z"/><path class="cls-2" d="M437.72,30.91h25.2V64h-5.86V35.52H443.6V52.74c0,4.72-.74,7.82-2.24,9.3a8.47,8.47,0,0,1-6.26,2.23,21.26,21.26,0,0,1-4-.31V59.22a12.24,12.24,0,0,0,3.27.47A2.64,2.64,0,0,0,437,58.32q.69-1.37.69-5.45Z"/><path class="cls-2" d="M482.23,30.91h15.26V64H491.6V51.06h-5.23a6.2,6.2,0,0,0-4,1.29,12.72,12.72,0,0,0-3.1,4.35L475.65,64H468.9l4.48-8.29a10.18,10.18,0,0,1,5.79-5.36q-8.81-1.77-8.81-9.78a8.6,8.6,0,0,1,3.15-7Q476.65,30.91,482.23,30.91Zm9.37,15.57v-11h-8.47c-4.46,0-6.7,1.74-6.7,5.23q0,5.73,8.29,5.73Z"/><path class="cls-2" d="M553.4,23.71H529.91V64h-6V18.3H553.4Z"/><path class="cls-2" d="M597.53,64h-6.82l-5.29-13.9H566.29l-5,13.9h-6.39L572.4,18.3h6.51ZM583.64,45.27l-8-21.18-7.66,21.18Z"/><path class="cls-2" d="M635,23.71h-15.1V64h-6.08V23.71h-15V18.3H635Z"/><path class="cls-2" d="M677.39,64h-5.76V27.27L647.71,64h-6.17V18.3h5.73V55L671.19,18.3h6.2Z"/></g></g></svg>