<svg xmlns="http://www.w3.org/2000/svg" viewBox="0 0 399.01 70"><defs><style>.cls-1{fill:#fff;}.cls-2{fill:none;}.cls-3{fill:#ebb654;stroke:#ebb654;stroke-miterlimit:10;}</style></defs><title>gati_Asset 15ldpi</title><g id="Layer_2" data-name="Layer 2"><g id="logo"><path class="cls-1" d="M147.3,54.61a2.9,2.9,0,0,0,1-.73,1.48,1.48,0,0,0,.33-1,2,2,0,0,0-.76-1.59,3.25,3.25,0,0,0-2.14-.63,3.66,3.66,0,0,0-1.93.5,2.36,2.36,0,0,0-1.11,1.51l1.71.37a1.6,1.6,0,0,1,.58-.82,1.42,1.42,0,0,1,.72-.17,1,1,0,0,1,.78.3,1,1,0,0,1,.27.67,1,1,0,0,1-.21.6,1,1,0,0,1-.45.33,2.89,2.89,0,0,1-.77.07v1.32h.35a1.57,1.57,0,0,1,.93.25.82.82,0,0,1,.36.7.92.92,0,0,1-.35.71,1.31,1.31,0,0,1-.91.29,1.53,1.53,0,0,1-1.47-1.12l-1.85.34c.41,1.43,1.52,2.14,3.35,2.14a3.87,3.87,0,0,0,2.4-.65,1.9,1.9,0,0,0,.83-1.53,1.68,1.68,0,0,0-.42-1.17A2.61,2.61,0,0,0,147.3,54.61Z"/><path class="cls-1" d="M156.6,56l0-2.36a4.17,4.17,0,0,0-.27-1.81,2,2,0,0,0-.93-.81,4.71,4.71,0,0,0-2-.32,3.9,3.9,0,0,0-2.25.53,2.87,2.87,0,0,0-1.06,1.64l1.83.33a1.52,1.52,0,0,1,.49-.74,1.45,1.45,0,0,1,.84-.22,1.75,1.75,0,0,1,1.09.25,1.07,1.07,0,0,1,.29.83v.21a10.91,10.91,0,0,1-2,.49,7,7,0,0,0-1.6.47,2.06,2.06,0,0,0-.87.78,2.29,2.29,0,0,0,.37,2.78,2.62,2.62,0,0,0,1.86.64,3.33,3.33,0,0,0,1.26-.25,3.73,3.73,0,0,0,1.11-.76s0,.12.07.24a6,6,0,0,0,.19.59h2a3.91,3.91,0,0,1-.36-1A7.75,7.75,0,0,1,156.6,56Zm-2-.75a4.08,4.08,0,0,1-.08,1,1.27,1.27,0,0,1-.48.67,1.76,1.76,0,0,1-1.05.36,1.09,1.09,0,0,1-.8-.31,1,1,0,0,1-.32-.73.82.82,0,0,1,.4-.71,3.49,3.49,0,0,1,1.1-.36,11.76,11.76,0,0,0,1.23-.31Z"/><path class="cls-1" d="M163.73,56.22a2.77,2.77,0,0,0-1.62-1.66,1.88,1.88,0,0,0,1-1.3,2.24,2.24,0,0,1,.48-.94,2,2,0,0,1,1-.16V50.83c-.38,0-.65,0-.8,0a2,2,0,0,0-1.21.32,3,3,0,0,0-.85,1.44,3.71,3.71,0,0,1-.5,1.1,1,1,0,0,1-.71.31V50.84h-2v7.64h2V55.22a1,1,0,0,1,.67.2,2.68,2.68,0,0,1,.54.85l1,2.21h2.17l-1.12-2.1Z"/><path class="cls-1" d="M172.16,56l0-2.36a4.17,4.17,0,0,0-.27-1.81A2,2,0,0,0,171,51a4.71,4.71,0,0,0-2-.32,3.84,3.84,0,0,0-2.24.53,2.83,2.83,0,0,0-1.07,1.64l1.83.33a1.52,1.52,0,0,1,.49-.74,1.5,1.5,0,0,1,.85-.22,1.74,1.74,0,0,1,1.08.25,1.07,1.07,0,0,1,.29.83v.21a11,11,0,0,1-2,.49,7.06,7.06,0,0,0-1.61.47,2.06,2.06,0,0,0-.87.78,2.26,2.26,0,0,0-.31,1.16,2.15,2.15,0,0,0,.68,1.62,2.62,2.62,0,0,0,1.86.64,3.29,3.29,0,0,0,1.26-.25,3.73,3.73,0,0,0,1.11-.76s0,.12.07.24.14.46.19.59h2a3.91,3.91,0,0,1-.36-1A7.75,7.75,0,0,1,172.16,56Zm-2-.75a4.08,4.08,0,0,1-.08,1,1.27,1.27,0,0,1-.48.67,1.75,1.75,0,0,1-1,.36,1.09,1.09,0,0,1-.81-.31,1,1,0,0,1-.32-.73.84.84,0,0,1,.4-.71,3.49,3.49,0,0,1,1.1-.36,11.76,11.76,0,0,0,1.23-.31Z"/><path class="cls-1" d="M178.36,54.61a3,3,0,0,0,1-.73,1.48,1.48,0,0,0,.33-1A2,2,0,0,0,179,51.3a3.27,3.27,0,0,0-2.14-.63,3.66,3.66,0,0,0-1.93.5,2.36,2.36,0,0,0-1.11,1.51l1.71.37a1.54,1.54,0,0,1,.58-.82,1.42,1.42,0,0,1,.72-.17,1,1,0,0,1,.78.3,1,1,0,0,1,.27.67,1,1,0,0,1-.22.6.91.91,0,0,1-.45.33,2.76,2.76,0,0,1-.76.07v1.32h.35a1.57,1.57,0,0,1,.93.25.81.81,0,0,1,.35.7.91.91,0,0,1-.34.71,1.33,1.33,0,0,1-.91.29,1.53,1.53,0,0,1-1.47-1.12l-1.85.34c.41,1.43,1.52,2.14,3.34,2.14a3.89,3.89,0,0,0,2.41-.65,1.9,1.9,0,0,0,.83-1.53,1.68,1.68,0,0,0-.42-1.17A2.61,2.61,0,0,0,178.36,54.61Z"/><polygon class="cls-1" points="185.69 58.48 187.71 58.48 187.71 52.47 190.45 52.47 190.45 58.48 192.47 58.48 192.47 50.84 185.69 50.84 185.69 58.48"/><path class="cls-1" d="M198.13,50.67a4.15,4.15,0,0,0-2,.49,3.38,3.38,0,0,0-1.41,1.44,4.15,4.15,0,0,0-.49,1.95,4.66,4.66,0,0,0,.49,2.24,3.2,3.2,0,0,0,1.45,1.39,4.37,4.37,0,0,0,2,.48A3.8,3.8,0,0,0,201,57.52a4,4,0,0,0,1.12-2.88A3.91,3.91,0,0,0,201,51.79,3.82,3.82,0,0,0,198.13,50.67Zm1.33,5.73a1.74,1.74,0,0,1-2.65,0,3.07,3.07,0,0,1,0-3.48,1.76,1.76,0,0,1,2.65,0,3.07,3.07,0,0,1,0,3.48Z"/><polygon class="cls-1" points="206.84 52.47 209.29 52.47 209.29 58.48 211.31 58.48 211.31 52.47 213.75 52.47 213.75 50.84 206.84 50.84 206.84 52.47"/><path class="cls-1" d="M220.56,51.79a3.37,3.37,0,0,0-2.69-1.12,3.27,3.27,0,0,0-2.5,1.07,4.2,4.2,0,0,0-1,3,4.31,4.31,0,0,0,.76,2.63,3.42,3.42,0,0,0,3,1.31,3.63,3.63,0,0,0,2.09-.58,3.33,3.33,0,0,0,1.23-1.69l-2-.34a1.73,1.73,0,0,1-.49.84,1.26,1.26,0,0,1-.8.26,1.56,1.56,0,0,1-1.17-.5,2.1,2.1,0,0,1-.49-1.4h5.07A5,5,0,0,0,220.56,51.79ZM216.48,54a1.93,1.93,0,0,1,.42-1.31,1.43,1.43,0,0,1,1.1-.49,1.42,1.42,0,0,1,1.05.46A1.93,1.93,0,0,1,219.5,54Z"/><path class="cls-1" d="M223.7,55.26a6.92,6.92,0,0,1-.09,1.5c-.07.18-.23.27-.51.27l-.49,0-.33,0v1.49a7.75,7.75,0,0,0,1.27.13,3.13,3.13,0,0,0,1.18-.16,1.57,1.57,0,0,0,.67-.7,4,4,0,0,0,.3-1.84V52.48h2.75v6h2V50.84H223.7Z"/><rect class="cls-1" x="232.9" y="50.84" width="2.02" height="2.02"/><rect class="cls-1" x="232.9" y="56.46" width="2.02" height="2.02"/><polygon class="cls-1" points="245.66 49.59 243.82 49.59 243.82 52.33 241.06 52.33 241.06 54.22 243.82 54.22 243.82 56.97 245.66 56.97 245.66 54.22 248.43 54.22 248.43 52.33 245.66 52.33 245.66 49.59"/><path class="cls-1" d="M249.67,50h4.6A15.11,15.11,0,0,0,252,54a13.73,13.73,0,0,0-.9,4.46H253a12.23,12.23,0,0,1,.46-3.17A14.57,14.57,0,0,1,254.84,52a10.83,10.83,0,0,1,1.75-2.42V48.08h-6.92Z"/><path class="cls-1" d="M265.18,47.89a3.25,3.25,0,0,0-2.43,1,3.59,3.59,0,0,0-.95,2.59,3.5,3.5,0,0,0,.9,2.5,2.85,2.85,0,0,0,2.15,1,2.39,2.39,0,0,0,1.9-.88,4.94,4.94,0,0,1-.56,2.39,1.29,1.29,0,0,1-1.06.57,1.08,1.08,0,0,1-.8-.29,1.36,1.36,0,0,1-.37-.88L262,56a3.14,3.14,0,0,0,1,2,2.94,2.94,0,0,0,2,.66,3.49,3.49,0,0,0,2.79-1.28,6.52,6.52,0,0,0,1.07-4.17,6.4,6.4,0,0,0-1-4.09A3.26,3.26,0,0,0,265.18,47.89Zm1,5.09a1.26,1.26,0,0,1-1,.46,1.24,1.24,0,0,1-1-.48,3,3,0,0,1,0-3,1.16,1.16,0,0,1,.94-.44,1.31,1.31,0,0,1,1,.54,2.29,2.29,0,0,1,.45,1.51A2,2,0,0,1,266.17,53Z"/><path class="cls-1" d="M273.56,47.89A2.86,2.86,0,0,0,271.18,49a6.9,6.9,0,0,0-1,4.29c0,2,.31,3.43.94,4.22a3,3,0,0,0,2.48,1.18A2.9,2.9,0,0,0,276,57.59a7,7,0,0,0,1-4.31,7.05,7.05,0,0,0-1-4.3A2.89,2.89,0,0,0,273.56,47.89Zm1.1,8a1.5,1.5,0,0,1-.44.84,1,1,0,0,1-.66.24,1,1,0,0,1-.65-.23,1.85,1.85,0,0,1-.47-.93,11.68,11.68,0,0,1-.19-2.55,11.45,11.45,0,0,1,.21-2.64,1.65,1.65,0,0,1,.45-.84,1,1,0,0,1,.65-.23,1,1,0,0,1,.65.23,1.82,1.82,0,0,1,.47.93,11.07,11.07,0,0,1,.19,2.55A11.29,11.29,0,0,1,274.66,55.91Z"/><path class="cls-1" d="M284.26,47.89h-1.7L278,54.59v1.77h4.31v2.12h2V56.36h1.31V54.58h-1.31Zm-2,6.69h-2.42L282.3,51Z"/><path class="cls-1" d="M295.56,52.81a2.4,2.4,0,0,0,.78-4,3.16,3.16,0,0,0-2.39-1,3.65,3.65,0,0,0-1.57.33,2.49,2.49,0,0,0-1.09.9,4,4,0,0,0-.59,1.53l1.86.31a1.65,1.65,0,0,1,.45-1.05,1.21,1.21,0,0,1,.88-.36,1.1,1.1,0,0,1,1.16,1.17,1.26,1.26,0,0,1-.43,1,1.81,1.81,0,0,1-1.25.36l-.23,1.65a3.56,3.56,0,0,1,.93-.15,1.29,1.29,0,0,1,1,.44,1.74,1.74,0,0,1,.41,1.21,1.8,1.8,0,0,1-.43,1.28,1.41,1.41,0,0,1-2,.08,1.84,1.84,0,0,1-.51-1.14l-1.95.23a3.23,3.23,0,0,0,1.09,2.16,3.47,3.47,0,0,0,2.37.82,3.51,3.51,0,0,0,2.53-1,3.21,3.21,0,0,0,1-2.37,2.55,2.55,0,0,0-.54-1.64A2.47,2.47,0,0,0,295.56,52.81Z"/><path class="cls-1" d="M303.75,52.81a2.4,2.4,0,0,0,.78-4,3.16,3.16,0,0,0-2.39-1,3.65,3.65,0,0,0-1.57.33,2.49,2.49,0,0,0-1.09.9,4,4,0,0,0-.59,1.53l1.86.31a1.7,1.7,0,0,1,.45-1.05,1.21,1.21,0,0,1,.88-.36,1.14,1.14,0,0,1,.84.32,1.11,1.11,0,0,1,.32.85,1.26,1.26,0,0,1-.43,1,1.81,1.81,0,0,1-1.25.36l-.23,1.65a3.56,3.56,0,0,1,.93-.15,1.28,1.28,0,0,1,1,.44,1.74,1.74,0,0,1,.41,1.21,1.8,1.8,0,0,1-.43,1.28,1.41,1.41,0,0,1-2,.08,1.83,1.83,0,0,1-.5-1.14l-2,.23a3.23,3.23,0,0,0,1.09,2.16,3.81,3.81,0,0,0,4.9-.15,3.21,3.21,0,0,0,1-2.37,2.55,2.55,0,0,0-.54-1.64A2.47,2.47,0,0,0,303.75,52.81Z"/><path class="cls-1" d="M310.42,47.89A2.88,2.88,0,0,0,308,49a7,7,0,0,0-1,4.29c0,2,.32,3.43.95,4.22a3,3,0,0,0,2.48,1.18,2.88,2.88,0,0,0,2.38-1.07,7,7,0,0,0,1-4.31,7,7,0,0,0-1-4.3A2.86,2.86,0,0,0,310.42,47.89Zm1.1,8a1.57,1.57,0,0,1-.45.84,1,1,0,0,1-.65.24,1,1,0,0,1-.65-.23,1.77,1.77,0,0,1-.47-.93,11.07,11.07,0,0,1-.19-2.55,11.45,11.45,0,0,1,.21-2.64,1.58,1.58,0,0,1,.44-.84,1,1,0,0,1,1.31,0,1.9,1.9,0,0,1,.47.93,11.68,11.68,0,0,1,.19,2.55A11.29,11.29,0,0,1,311.52,55.91Z"/><path class="cls-1" d="M323.72,54.88A12.71,12.71,0,0,0,325,53.53a5.48,5.48,0,0,0,.81-1.35,3.64,3.64,0,0,0,.26-1.35,2.78,2.78,0,0,0-.89-2.1,3.46,3.46,0,0,0-2.46-.84,3.74,3.74,0,0,0-2.37.73A3.3,3.3,0,0,0,319.26,51l2,.2a1.88,1.88,0,0,1,.43-1.26,1.31,1.31,0,0,1,1-.38,1.39,1.39,0,0,1,1,.36,1.41,1.41,0,0,1,.36,1,2.22,2.22,0,0,1-.42,1.24A13.84,13.84,0,0,1,322,53.94a13.67,13.67,0,0,0-2.28,2.53,4.92,4.92,0,0,0-.69,2h7.09V56.61h-4a3.22,3.22,0,0,1,.41-.57C322.68,55.85,323.08,55.46,323.72,54.88Z"/><path class="cls-1" d="M332.41,52.81a2.47,2.47,0,0,0,1.52-2.21,2.5,2.5,0,0,0-.74-1.76,3.14,3.14,0,0,0-2.39-1,3.65,3.65,0,0,0-1.57.33,2.49,2.49,0,0,0-1.09.9,4.18,4.18,0,0,0-.59,1.53l1.87.31a1.7,1.7,0,0,1,.44-1.05,1.23,1.23,0,0,1,.89-.36,1.09,1.09,0,0,1,1.15,1.17,1.26,1.26,0,0,1-.43,1,1.78,1.78,0,0,1-1.25.36L330,53.73a3.56,3.56,0,0,1,.93-.15,1.31,1.31,0,0,1,1,.44,1.74,1.74,0,0,1,.41,1.21,1.85,1.85,0,0,1-.43,1.28,1.42,1.42,0,0,1-2.05.08,1.83,1.83,0,0,1-.5-1.14l-2,.23a3.24,3.24,0,0,0,1.1,2.16,3.44,3.44,0,0,0,2.37.82,3.47,3.47,0,0,0,2.52-1,3.19,3.19,0,0,0,1-2.37,2.56,2.56,0,0,0-.55-1.64A2.44,2.44,0,0,0,332.41,52.81Z"/><path class="cls-1" d="M339.76,50h4.59A14.82,14.82,0,0,0,342.08,54a13.75,13.75,0,0,0-.91,4.46h1.95a12.68,12.68,0,0,1,.46-3.17A14.16,14.16,0,0,1,344.93,52a11.15,11.15,0,0,1,1.74-2.42V48.08h-6.91Z"/><path class="cls-1" d="M353.8,49.13a3.45,3.45,0,0,0-5.06-.26,3.59,3.59,0,0,0-.95,2.59,3.5,3.5,0,0,0,.9,2.5,2.85,2.85,0,0,0,2.15,1,2.39,2.39,0,0,0,1.9-.88,4.83,4.83,0,0,1-.56,2.39,1.29,1.29,0,0,1-1.06.57,1.08,1.08,0,0,1-.8-.29,1.36,1.36,0,0,1-.37-.88L348,56a3.14,3.14,0,0,0,1,2,2.94,2.94,0,0,0,2,.66,3.49,3.49,0,0,0,2.79-1.28,6.52,6.52,0,0,0,1.07-4.17A6.4,6.4,0,0,0,353.8,49.13ZM352.17,53a1.29,1.29,0,0,1-1,.46,1.24,1.24,0,0,1-1-.48,3,3,0,0,1,0-3,1.16,1.16,0,0,1,.94-.44,1.31,1.31,0,0,1,1,.54,2.29,2.29,0,0,1,.45,1.51A2.06,2.06,0,0,1,352.17,53Z"/><rect class="cls-2" width="399.01" height="70"/><path class="cls-3" d="M59.15,18.21a1.58,1.58,0,0,0-1,.61,3.86,3.86,0,0,0-.21,1.59V30.55a3.92,3.92,0,0,0,.2,1.58,1.52,1.52,0,0,0,1,.59v.78H53v-.78a1.64,1.64,0,0,0,1.05-.54,4.14,4.14,0,0,0,.2-1.63V18.92h-5V30.55a3.7,3.7,0,0,0,.22,1.57,1.52,1.52,0,0,0,1.05.6v.78H44.38v-.78a1.55,1.55,0,0,0,1-.59,3.66,3.66,0,0,0,.22-1.58V20.4a3.83,3.83,0,0,0-.21-1.59,1.65,1.65,0,0,0-1-.6v-.77H59.15Z"/><path class="cls-3" d="M73.11,17.8v3.41h-1.6a4.07,4.07,0,0,0-.89-2A2.15,2.15,0,0,0,69,18.62a3,3,0,0,0-2.81,1.79,11.62,11.62,0,0,0-1,5.29,11,11,0,0,0,.87,4.93,2.75,2.75,0,0,0,2.55,1.68,2.86,2.86,0,0,0,1.4-.29,2.18,2.18,0,0,0,.87-.86,6.62,6.62,0,0,0,.56-1.63h1.61V33.1q-1.29.3-2.37.45a17.63,17.63,0,0,1-2.22.14,8.07,8.07,0,0,1-4-.88,5.25,5.25,0,0,1-2.29-2.67,11.92,11.92,0,0,1-.73-4.51,10.7,10.7,0,0,1,.86-4.45,6.53,6.53,0,0,1,2.55-2.91,7.6,7.6,0,0,1,4-1,15.77,15.77,0,0,1,2.16.13A14.74,14.74,0,0,1,73.11,17.8Z"/><path class="cls-3" d="M90,18.21a1.61,1.61,0,0,0-1,.61,3.86,3.86,0,0,0-.21,1.59V30.55A3.87,3.87,0,0,0,89,32.13a1.5,1.5,0,0,0,1,.59v.78H83.87v-.78a1.58,1.58,0,0,0,1-.54,4,4,0,0,0,.2-1.63V18.92h-5V30.55a3.7,3.7,0,0,0,.22,1.57,1.49,1.49,0,0,0,1,.6v.78H75.24v-.78a1.57,1.57,0,0,0,1-.59,3.66,3.66,0,0,0,.22-1.58V20.4a3.83,3.83,0,0,0-.21-1.59,1.65,1.65,0,0,0-1.05-.6v-.77H90Z"/><path class="cls-3" d="M107.2,33.68v1.93a3.13,3.13,0,0,0,.27,1.65,1.68,1.68,0,0,0,1,.52v.78h-5.87v-.78a1.47,1.47,0,0,0,.95-.57,3.63,3.63,0,0,0,.23-1.6V33.69a6.75,6.75,0,0,1-4.71-1.59,5.66,5.66,0,0,1-1.63-4.33,5.88,5.88,0,0,1,1.68-4.44,6.74,6.74,0,0,1,4.66-1.68v-.94a8.86,8.86,0,0,0-.2-2.47c-.14-.32-.52-.53-1.13-.65v-.78l3.29-.16h1.44v5a6.59,6.59,0,0,1,4.65,1.58,5.62,5.62,0,0,1,1.66,4.31A6,6,0,0,1,111.88,32,6.7,6.7,0,0,1,107.2,33.68Zm-3.4-1.33V23Q101,23.19,101,27.5C101,30.56,102,32.17,103.8,32.35ZM107.2,23v9.32q2.73-.24,2.73-4.46Q109.93,23.21,107.2,23Z"/><path class="cls-3" d="M122.48,32l-.18-.06a6.76,6.76,0,0,1-1.88,1.36,4.39,4.39,0,0,1-1.93.43,4,4,0,0,1-1.76-.37,2.58,2.58,0,0,1-1.13-1,2.93,2.93,0,0,1-.38-1.52,3,3,0,0,1,1.7-2.72,12.17,12.17,0,0,1,5.16-1.26V25.67a4.37,4.37,0,0,0-.25-1.68,1.52,1.52,0,0,0-1.56-1.08,2.07,2.07,0,0,0-.94.19,1.72,1.72,0,0,0-.71.71,4.11,4.11,0,0,0-.47,1.45h-2.23V23.12c.72-.32,1.32-.57,1.8-.74a14.22,14.22,0,0,1,1.42-.43,10.92,10.92,0,0,1,1.26-.24,8,8,0,0,1,1.1-.07,5.77,5.77,0,0,1,2.28.37,2.59,2.59,0,0,1,1.28,1.23,5.32,5.32,0,0,1,.42,2.34v4.59q0,.78,0,1.2a2.42,2.42,0,0,0,.12.63.87.87,0,0,0,.19.33.88.88,0,0,0,.29.2,5,5,0,0,0,.64.19v.78h-4.38Zm-.39-4a4.76,4.76,0,0,0-2.7.68,2.13,2.13,0,0,0-.88,1.86,1.51,1.51,0,0,0,.4,1.11A1.57,1.57,0,0,0,120,32a1.88,1.88,0,0,0,1-.29,2.18,2.18,0,0,0,.77-.77,2,2,0,0,0,.28-1Z"/><path class="cls-3" d="M140.44,30.61a3,3,0,0,0,.26,1.59,1.5,1.5,0,0,0,.92.52v.78h-5.7v-.78a1.15,1.15,0,0,0,.89-.58,3.69,3.69,0,0,0,.23-1.53V26.06l-4,5.19q0,1.3,1.08,1.47v.78h-5.67v-.78a1.22,1.22,0,0,0,1-.63,5.74,5.74,0,0,0,.2-2V25.21a5.11,5.11,0,0,0-.23-2,1.53,1.53,0,0,0-.92-.57v-.77h5.67v.77a1.24,1.24,0,0,0-.92.63,6.27,6.27,0,0,0-.19,2v3.95L137,24a1.24,1.24,0,0,0-1.07-1.38v-.77h5.68v.77a1.52,1.52,0,0,0-1,.65,6.39,6.39,0,0,0-.18,2Zm-1.2-13.12a2.31,2.31,0,0,1-1.17,2.06,5.81,5.81,0,0,1-3.12.73q-4.15,0-4.16-2.79v-.71h2.4v.61A1.56,1.56,0,0,0,135,19.15a1.91,1.91,0,0,0,1.43-.43,1.84,1.84,0,0,0,.41-1.33v-.61h2.42Z"/><path class="cls-3" d="M150.47,33.5v-.78a1.26,1.26,0,0,0,1-.46,3,3,0,0,0,.31-1.65V23.18h-2.3a32.13,32.13,0,0,1-1.19,6.42,7.35,7.35,0,0,1-1.71,3.32,3.27,3.27,0,0,1-2.17.78,5.26,5.26,0,0,1-1.55-.24v-2.7h1.41c.05.68.3,1,.76,1,.67,0,1.27-1,1.8-3a19.3,19.3,0,0,0,.8-4.55A1.72,1.72,0,0,0,147.3,23a1.44,1.44,0,0,0-.81-.39v-.79h9.93v.79a1.32,1.32,0,0,0-1,.53,3.36,3.36,0,0,0-.25,1.57v5.91a3,3,0,0,0,.28,1.62,1.48,1.48,0,0,0,1,.49v.78Z"/><path class="cls-3" d="M167,33.5a1.62,1.62,0,0,0-1,.28,3,3,0,0,0-.78,1.24,11.52,11.52,0,0,0-.66,2.28h-1.42V32h1.51a18.29,18.29,0,0,0,1.95-4.24,13.07,13.07,0,0,0,.8-3.92,1.44,1.44,0,0,0-.23-.94,1.26,1.26,0,0,0-.9-.33v-.77h9.48v.77c-.85.08-1.27.66-1.27,1.73V32h1.89V37.3h-1.42a12.66,12.66,0,0,0-.68-2.41,2.86,2.86,0,0,0-.72-1.15,2,2,0,0,0-1.13-.24ZM171.05,32V23.18h-2A24,24,0,0,1,166.49,32Z"/><path class="cls-3" d="M184.86,33.5v-.78a1.24,1.24,0,0,0,1-.46,2.94,2.94,0,0,0,.31-1.65V23.18h-2.29a32.86,32.86,0,0,1-1.19,6.42,7.35,7.35,0,0,1-1.72,3.32,3.22,3.22,0,0,1-2.16.78,5.38,5.38,0,0,1-1.56-.24v-2.7h1.42c0,.68.3,1,.76,1,.67,0,1.27-1,1.8-3a19.3,19.3,0,0,0,.8-4.55,1.67,1.67,0,0,0-.32-1.22,1.41,1.41,0,0,0-.81-.39v-.79h9.93v.79a1.3,1.3,0,0,0-1,.53,3.36,3.36,0,0,0-.25,1.57v5.91a3,3,0,0,0,.28,1.62,1.47,1.47,0,0,0,1,.49v.78Z"/><path class="cls-3" d="M199.31,28.63a1.52,1.52,0,0,0-1.06.37,4.32,4.32,0,0,0-.83,1.15L196,33v.54h-4v-.78a1.48,1.48,0,0,0,.77-.4,6.22,6.22,0,0,0,.64-1L194.1,30a3.41,3.41,0,0,1,1.81-1.65v-.1c-1.82-.48-2.73-1.45-2.73-2.92,0-2.32,1.59-3.47,4.77-3.47h6.6v.77a1.43,1.43,0,0,0-1,.49,3.79,3.79,0,0,0-.28,1.83v5.6a4.34,4.34,0,0,0,.2,1.57,1.34,1.34,0,0,0,1.06.63v.78h-5.85v-.78a1.23,1.23,0,0,0,1-.48,4.72,4.72,0,0,0,.23-1.89V28.63Zm.59-1.17V23.07a4.3,4.3,0,0,0-2.71.36,2,2,0,0,0-.71,1.77,2.23,2.23,0,0,0,.58,1.72,2.74,2.74,0,0,0,1.89.54Z"/><path class="cls-3" d="M217.49,33.69a6.72,6.72,0,0,1-3-.61,4.32,4.32,0,0,1-2-1.94,7.24,7.24,0,0,1-.7-3.4,7.75,7.75,0,0,1,.43-2.73,5.26,5.26,0,0,1,1.21-1.9A4.86,4.86,0,0,1,215.35,22a7.25,7.25,0,0,1,2.33-.36,5.72,5.72,0,0,1,4.3,1.5,6.1,6.1,0,0,1,1.45,4.39,7.35,7.35,0,0,1-.72,3.43A4.59,4.59,0,0,1,220.66,33,7.06,7.06,0,0,1,217.49,33.69Zm-2.07-6.2a9.53,9.53,0,0,0,.56,3.73,1.8,1.8,0,0,0,1.69,1.24,1.67,1.67,0,0,0,1-.31,2.25,2.25,0,0,0,.67-.92,5.41,5.41,0,0,0,.36-1.44,15.28,15.28,0,0,0,.11-1.89,9.75,9.75,0,0,0-.56-3.78,1.78,1.78,0,0,0-1.65-1.26,1.7,1.7,0,0,0-1.29.51,3.12,3.12,0,0,0-.7,1.52A12.25,12.25,0,0,0,215.42,27.49Z"/><path class="cls-3" d="M229.91,35.61a5.8,5.8,0,0,0,.09,1.24,1.15,1.15,0,0,0,.34.58,2,2,0,0,0,.85.35v.78h-5.86v-.78a2,2,0,0,0,.77-.36,1.18,1.18,0,0,0,.32-.56,5.92,5.92,0,0,0,.09-1.25V25.31c0-.56,0-.95,0-1.19a3.23,3.23,0,0,0-.08-.6,1.41,1.41,0,0,0-.18-.41,1.12,1.12,0,0,0-.35-.27,2.62,2.62,0,0,0-.68-.21v-.8l3.26-.1h1.45l-.18,1.71.14,0a7.73,7.73,0,0,1,1.89-1.4,4,4,0,0,1,1.81-.43,3.6,3.6,0,0,1,3.14,1.47,7.65,7.65,0,0,1,1,4.42,8.31,8.31,0,0,1-.62,3.41A4.31,4.31,0,0,1,235.3,33a6.06,6.06,0,0,1-3,.69,9.09,9.09,0,0,1-2.38-.31Zm0-6a3.69,3.69,0,0,0,.5,2.14,1.9,1.9,0,0,0,3.2-.45,7.41,7.41,0,0,0,.57-3.24,8.88,8.88,0,0,0-.51-3.47,1.66,1.66,0,0,0-1.59-1.13,2.11,2.11,0,0,0-1,.27,2.09,2.09,0,0,0-.82.77,2,2,0,0,0-.32,1.12Z"/><path class="cls-3" d="M242.1,33.5a1.62,1.62,0,0,0-1,.28,3,3,0,0,0-.78,1.24,12.2,12.2,0,0,0-.67,2.28h-1.41V32h1.51a18.29,18.29,0,0,0,1.95-4.24,13.39,13.39,0,0,0,.8-3.92,1.5,1.5,0,0,0-.23-.94,1.26,1.26,0,0,0-.9-.33v-.77h9.48v.77c-.85.08-1.28.66-1.28,1.73V32h1.9V37.3h-1.42a13.44,13.44,0,0,0-.68-2.41,2.85,2.85,0,0,0-.73-1.15,2,2,0,0,0-1.13-.24ZM246.17,32V23.18h-2A23.76,23.76,0,0,1,241.62,32Z"/><path class="cls-3" d="M263.78,31.36a7.74,7.74,0,0,1-2.38,1.8,6.55,6.55,0,0,1-2.71.53,5.34,5.34,0,0,1-4.12-1.5,6.39,6.39,0,0,1-1.38-4.46,7.19,7.19,0,0,1,.71-3.29,4.8,4.8,0,0,1,2-2.09,6.17,6.17,0,0,1,3-.71,6.61,6.61,0,0,1,1.88.24,4.46,4.46,0,0,1,1.38.69,3.77,3.77,0,0,1,1,1.07,5.8,5.8,0,0,1,.67,1.69,11.18,11.18,0,0,1,.25,2.37h-7.47a5.31,5.31,0,0,0,.76,3.13,2.66,2.66,0,0,0,2.28,1,3.66,3.66,0,0,0,1.61-.34,5.51,5.51,0,0,0,1.56-1.18Zm-3.18-4.93a7,7,0,0,0-.47-2.69,1.43,1.43,0,0,0-1.36-.88,1.63,1.63,0,0,0-1.45.92,6.15,6.15,0,0,0-.64,2.65Z"/><path class="cls-3" d="M270.32,35.61a5.06,5.06,0,0,0,.1,1.24,1.07,1.07,0,0,0,.33.58,2,2,0,0,0,.85.35v.78h-5.86v-.78a2,2,0,0,0,.77-.36,1.18,1.18,0,0,0,.32-.56,5.92,5.92,0,0,0,.09-1.25V25.31c0-.56,0-.95,0-1.19a3.23,3.23,0,0,0-.08-.6,1.19,1.19,0,0,0-.18-.41,1.12,1.12,0,0,0-.35-.27,2.62,2.62,0,0,0-.68-.21v-.8l3.26-.1h1.45l-.17,1.71.14,0a7.37,7.37,0,0,1,1.89-1.4,4,4,0,0,1,1.8-.43,3.59,3.59,0,0,1,3.14,1.47,7.65,7.65,0,0,1,1.05,4.42,8.15,8.15,0,0,1-.62,3.41A4.31,4.31,0,0,1,275.71,33a6,6,0,0,1-3,.69,9.09,9.09,0,0,1-2.38-.31Zm0-6a3.69,3.69,0,0,0,.5,2.14,1.9,1.9,0,0,0,3.2-.45,7.41,7.41,0,0,0,.57-3.24,8.88,8.88,0,0,0-.51-3.47,1.66,1.66,0,0,0-1.59-1.13,2.11,2.11,0,0,0-1,.27,2.09,2.09,0,0,0-.82.77,2,2,0,0,0-.32,1.12Z"/><path class="cls-3" d="M287.27,32l-.18-.06a6.76,6.76,0,0,1-1.88,1.36,4.39,4.39,0,0,1-1.93.43,4,4,0,0,1-1.76-.37,2.58,2.58,0,0,1-1.13-1,3.08,3.08,0,0,1,1.32-4.24,12.17,12.17,0,0,1,5.16-1.26V25.67a4.37,4.37,0,0,0-.25-1.68,1.52,1.52,0,0,0-1.56-1.08,2.07,2.07,0,0,0-.94.19,1.72,1.72,0,0,0-.71.71,4.11,4.11,0,0,0-.47,1.45h-2.23V23.12c.72-.32,1.33-.57,1.8-.74a14.22,14.22,0,0,1,1.42-.43,11.2,11.2,0,0,1,1.25-.24,8.27,8.27,0,0,1,1.11-.07,5.77,5.77,0,0,1,2.28.37,2.53,2.53,0,0,1,1.27,1.23,5.17,5.17,0,0,1,.43,2.34v4.59q0,.78,0,1.2a2.93,2.93,0,0,0,.12.63.87.87,0,0,0,.19.33.88.88,0,0,0,.29.2,5,5,0,0,0,.64.19v.78h-4.38Zm-.39-4a4.76,4.76,0,0,0-2.7.68,2.13,2.13,0,0,0-.88,1.86,1.51,1.51,0,0,0,.4,1.11,1.57,1.57,0,0,0,1.11.38,1.88,1.88,0,0,0,1-.29,2.18,2.18,0,0,0,.77-.77,2,2,0,0,0,.28-1Z"/><path class="cls-3" d="M305,33.5h-6.33v-.78a1.55,1.55,0,0,0,1-.59,3.69,3.69,0,0,0,.23-1.6V20.4a3.62,3.62,0,0,0-.22-1.59,1.65,1.65,0,0,0-1-.6v-.77H310v4.44H308.4a6.83,6.83,0,0,0-1.15-2.55,2,2,0,0,0-1.43-.48h-2.28v11.7a3.57,3.57,0,0,0,.25,1.62,1.65,1.65,0,0,0,1.18.55Z"/><path class="cls-3" d="M317.54,28.52h-5l-.39,1.12a9.2,9.2,0,0,0-.27.91,4.11,4.11,0,0,0-.1.94A1.12,1.12,0,0,0,313,32.72v.78h-5v-.78a1.46,1.46,0,0,0,.76-.3,2.68,2.68,0,0,0,.6-.71,8.1,8.1,0,0,0,.58-1.28l4.9-13.08h3.15l3.88,13.18a8.83,8.83,0,0,0,.44,1.26,1.72,1.72,0,0,0,.45.6,1.92,1.92,0,0,0,.79.33v.78H317v-.78a1.52,1.52,0,0,0,.9-.34,1,1,0,0,0,.3-.76,4.19,4.19,0,0,0-.09-.82,10.85,10.85,0,0,0-.27-1.12ZM313,27.15h4.23l-1.88-6.63Z"/><path class="cls-3" d="M326.26,33.5v-.78a2.87,2.87,0,0,0,.78-.21,1,1,0,0,0,.43-.39,1.52,1.52,0,0,0,.17-.63,8.34,8.34,0,0,0,0-.94V18.81h-.95a2.86,2.86,0,0,0-1.09.17,1.69,1.69,0,0,0-.65.52,3.42,3.42,0,0,0-.48.94c-.13.4-.24.77-.33,1.13h-1.61V17.44h13.85v4.13h-1.61c-.15-.54-.26-.93-.35-1.18a3.49,3.49,0,0,0-.29-.64,2.39,2.39,0,0,0-.33-.44,1.61,1.61,0,0,0-.38-.28,1.34,1.34,0,0,0-.5-.16,4.11,4.11,0,0,0-.78-.06h-.85V30.55c0,.41,0,.73,0,.94a2,2,0,0,0,.13.53,1.14,1.14,0,0,0,.23.32,1.23,1.23,0,0,0,.38.22,2.67,2.67,0,0,0,.65.16v.78Z"/><path class="cls-3" d="M352.44,30.55a3.87,3.87,0,0,0,.21,1.58,1.48,1.48,0,0,0,1,.59v.78h-6.14v-.78a1.58,1.58,0,0,0,1-.54,4,4,0,0,0,.2-1.63V25.94c0-1.38,0-2.44.11-3.16h-.07l-5.59,7.77a3.7,3.7,0,0,0,.22,1.57,1.49,1.49,0,0,0,1.05.6v.78h-6.18v-.78a1.57,1.57,0,0,0,1-.59,3.66,3.66,0,0,0,.22-1.58V20.4a3.83,3.83,0,0,0-.21-1.59,1.65,1.65,0,0,0-1.05-.6v-.77h6.18v.77a1.66,1.66,0,0,0-1.05.63,3.6,3.6,0,0,0-.22,1.57v5.18c0,1,0,1.75-.08,2.32h.07l5.56-7.78a3,3,0,0,0-.21-1.35,1.64,1.64,0,0,0-1-.57v-.77h6.14v.77a1.61,1.61,0,0,0-1,.61,3.86,3.86,0,0,0-.21,1.59Z"/></g></g></svg>