<svg xmlns="http://www.w3.org/2000/svg" viewBox="0 0 200.6 71"><defs><style>.cls-1,.cls-4{fill:#ebb654;}.cls-1{stroke:#ebb654;}.cls-1,.cls-2,.cls-3,.cls-5,.cls-7{stroke-miterlimit:10;}.cls-2,.cls-6{fill:#e67f70;}.cls-2{stroke:#e67f70;}.cls-3{fill:#d0393c;}.cls-3,.cls-5,.cls-7{stroke:#d0393c;}.cls-5,.cls-7{fill:none;}.cls-7{fill-rule:evenodd;}</style></defs><title>gati_Asset 9ldpi</title><g id="Layer_2" data-name="Layer 2"><g id="logo"><rect class="cls-1" x="0.5" y="0.5" width="199.6" height="70"/><path class="cls-2" d="M90.29,39.64c-1.05-1.39-5.63-7.52-6.94-10.18a.35.35,0,0,0-.67.07L73.06,61.85c-.14.45.36.79.63.43l16.6-22.06A.51.51,0,0,0,90.29,39.64Z"/><path class="cls-3" d="M93.88,9.38c-2.35-4.11-4.26,0-4.26,0v7.55s-4.85,1-5.14,7.55a8,8,0,0,0,1,5l24.6,33.19c.21.28.59,0,.49-.33L98.29,20.54s-2.35-3.95-4.55-3.78Z"/><circle class="cls-4" cx="91.82" cy="23.59" r="3.86"/><path class="cls-5" d="M164.39,20.25a2.11,2.11,0,0,0,.08-3.48L148.86,17a2.32,2.32,0,0,0-.36,3.49l2.31,0,13.72-.24"/><path class="cls-5" d="M150.7,20.39a1.73,1.73,0,0,0,0,2.79h11.71c2.51-1.12.07-2.79.07-2.79"/><line class="cls-5" x1="153.77" y1="25.96" x2="153.77" y2="53.57"/><line class="cls-5" x1="156.56" y1="26.1" x2="156.56" y2="53.7"/><line class="cls-5" x1="159.34" y1="25.96" x2="159.62" y2="53.57"/><polyline class="cls-5" points="151.41 23.18 151.54 56.63 161.85 56.63 161.88 23.18"/><path class="cls-5" d="M164.22,62.77H149.17c-2.93-1.68-.14-3.07-.14-3.07h15.05S167.71,61.09,164.22,62.77Z"/><path class="cls-5" d="M151.54,56.63s-3.6,1.4-.13,3.07"/><path class="cls-5" d="M161.85,56.63s3.86,1.4.26,3.07"/><path class="cls-6" d="M156.14,14.74c-1.24-.27-.55-1.34-1-1.94-.83.45-2,.57-2.08,1.89a1.22,1.22,0,0,1-.06-2,9.82,9.82,0,0,0,.77-.79l-3.51-.3c-.11-.6.13-.87.79-1,.51-.08,1-.2,1.53-.3l.06-.24a4.83,4.83,0,0,0-.9-.47c-.78-.25-.93-.44-.8-1.28.61.22,1.18.79,1.77.28a23.62,23.62,0,0,0-1.17-2.06,4,4,0,0,0-1-.73c1.16-.58,1.87-.35,2.43.75.1.18.33.29.49.44l.16-.1a6.69,6.69,0,0,1-.2-1.64,7,7,0,0,1,.59-1.5h.16a13.68,13.68,0,0,0,.25,1.58c.07.25.34.44.52.65a2.25,2.25,0,0,0,.39-.61c.24-.86.63-1.73.12-2.62.74-.17,1.52.76,1.36,1.56a3.1,3.1,0,0,0-.08,1,.62.62,0,0,0,.33.45c.11,0,.36-.09.46-.21a6.5,6.5,0,0,0,.68-1,1.69,1.69,0,0,1,1.51-.86c-.3.57-.6,1.06-.83,1.58a1.71,1.71,0,0,0-.22,1c.14.6.52.66,1,.23a6.07,6.07,0,0,1,.75-.84,6.91,6.91,0,0,1,1.17-.54l.21.22c-.32.57-.63,1.15-1,1.71a10.61,10.61,0,0,0-.76,1,.89.89,0,0,0,.06.78c.08.12.47.08.7.05s.49-.2.75-.25a1.26,1.26,0,0,1,1.43.76c-.3.07-.71,0-1,.22a2.11,2.11,0,0,1-2,.26c-.22.53.21.72.5.93a1.26,1.26,0,0,1,.37,1.81,6.06,6.06,0,0,0-.93-.76c-.6-.34-.92-.19-1.06.48-.18.85-.31,1.7-.46,2.55-.84-.18-.91-.25-.9-1.16,0-.42,0-.88-.42-1-.13,0-.47.5-.62.82A7.28,7.28,0,0,0,156.14,14.74Zm1.18-6.33a3.72,3.72,0,0,0,.11.38c.3.62-.07,1-.49,1.3a.82.82,0,0,1-1.12,0,1.18,1.18,0,0,1-.33-1.43,1.49,1.49,0,0,1,1.7-.8,1.73,1.73,0,0,1,1.15,1.58,2.29,2.29,0,0,1-2,1.94A2.41,2.41,0,0,1,154.22,10a2.68,2.68,0,0,1,1.95-3.23,4.08,4.08,0,0,0,.7-.22,2.73,2.73,0,0,0-3.48,3,3,3,0,0,0,3.66,2.58A2.64,2.64,0,0,0,159,8.52a2.39,2.39,0,0,0-3-1.26,1.89,1.89,0,0,0-1.32,2.28,1.7,1.7,0,0,0,3.16.39A1.13,1.13,0,0,0,157.32,8.41Z"/><polygon class="cls-7" points="146.09 13.92 146.01 5.38 102.02 5.38 102.09 13.92 146.09 13.92"/><path id="path5514" class="cls-5" d="M140.51,5.48V8.07"/><path id="path5516" class="cls-5" d="M134.88,5.51V9.59"/><path id="path6403" class="cls-5" d="M129.32,5.45V8"/><path id="path6405" class="cls-5" d="M117.86,5.45V8"/><path id="path6407" class="cls-5" d="M106.81,5.46V8.05"/><path id="path6425" class="cls-5" d="M112.38,5.45V9.52"/><path id="path6425-2" data-name="path6425" class="cls-5" d="M123.18,5.66V9.74"/><path class="cls-5" d="M132.56,20.39a2.12,2.12,0,0,0,.14-3.49H117.08a2.33,2.33,0,0,0-.42,3.49h16"/><path class="cls-5" d="M118.89,20.39a1.73,1.73,0,0,0,0,2.79H130.6c2.51-1.12.07-2.79.07-2.79"/><line class="cls-5" x1="121.96" y1="25.96" x2="121.96" y2="53.57"/><line class="cls-5" x1="124.75" y1="26.1" x2="124.75" y2="53.7"/><line class="cls-5" x1="127.54" y1="25.96" x2="127.82" y2="53.57"/><polyline class="cls-5" points="119.61 23.18 119.73 56.63 130.05 56.63 130.07 23.18"/><path class="cls-5" d="M132.42,62.77H117.36c-2.93-1.68-.14-3.07-.14-3.07h15.06S135.9,61.09,132.42,62.77Z"/><path class="cls-5" d="M119.73,56.63s-3.59,1.4-.12,3.07"/><path class="cls-5" d="M130.05,56.63s3.85,1.4.25,3.07"/><path class="cls-3" d="M68.55,60.21a41.75,41.75,0,0,1-13.19,2.16q-14,0-21.1-7.48a25.77,25.77,0,0,1-7.11-18.47A27.6,27.6,0,0,1,34.88,17q7.73-8.31,21.44-8.31a37,37,0,0,1,9.37,1.16l-1,6.61a47.54,47.54,0,0,0-10.6-1.59q-9.65,0-14.77,5.84A21.19,21.19,0,0,0,34.2,35.18a22.06,22.06,0,0,0,5.88,15.23Q46,57,56.68,56.94a42.13,42.13,0,0,0,5.86-.59,59.58,59.58,0,0,1-.68-9.65,72.42,72.42,0,0,0-.56-9h7.25c-.21,3.5-.31,7.21-.31,11.11Q68.24,51.29,68.55,60.21Z"/></g></g></svg>