<svg xmlns="http://www.w3.org/2000/svg" viewBox="0 0 457.09 160.95"><defs><style>.cls-1{fill:#369;stroke:#369;}.cls-1,.cls-2,.cls-3,.cls-5,.cls-7{stroke-miterlimit:10;}.cls-2,.cls-4{fill:#cfc;}.cls-2{stroke:#ccc;}.cls-3{fill:#036;}.cls-3,.cls-5,.cls-7{stroke:#036;}.cls-5,.cls-7{fill:none;}.cls-6{fill:#fc6;}.cls-7{fill-rule:evenodd;}</style></defs><title>gati_Asset 35ldpi</title><g id="Layer_2" data-name="Layer 2"><g id="Base"><rect class="cls-1" x="0.5" y="0.5" width="456.09" height="159.95"/><path class="cls-2" d="M191.12,94c-2.4-3.19-12.87-17.2-15.84-23.27a.81.81,0,0,0-1.54.17l-22,73.83c-.3,1,.83,1.81,1.45,1l37.93-50.4A1.13,1.13,0,0,0,191.12,94Z"/><path class="cls-3" d="M199.34,24.86c-5.37-9.41-9.74,0-9.74,0V42.11s-11.08,2.35-11.75,17.25a18.25,18.25,0,0,0,2.35,11.37l56.22,75.84c.47.63,1.35,0,1.11-.75L209.41,50.34s-5.37-9-10.41-8.62Z"/><circle class="cls-4" cx="194.63" cy="57.33" r="8.82"/><path class="cls-5" d="M360.44,49.69c5-3.91.18-8,.18-8L325,42.35s-4.71,3.58-.81,8l5.28-.09,31.34-.54"/><path class="cls-5" d="M329.16,50c-3.82,3.19,0,6.37,0,6.37h26.76c5.73-2.55.15-6.37.15-6.37"/><line class="cls-5" x1="336.17" y1="62.74" x2="336.17" y2="125.81"/><line class="cls-5" x1="342.54" y1="63.06" x2="342.54" y2="126.13"/><line class="cls-5" x1="348.91" y1="62.74" x2="349.55" y2="125.81"/><polyline class="cls-5" points="330.79 56.37 331.07 132.82 354.64 132.82 354.7 56.37"/><path class="cls-5" d="M360.06,146.83h-34.4c-6.69-3.82-.32-7-.32-7h34.4S368,143,360.06,146.83Z"/><path class="cls-5" d="M331.07,132.82s-8.21,3.18-.28,7"/><path class="cls-5" d="M354.64,132.82s8.81,3.18.58,7"/><path class="cls-6" d="M341.59,37.11c-2.82-.64-1.26-3.08-2.29-4.45-1.89,1-4.51,1.31-4.76,4.33a2.8,2.8,0,0,1-.12-4.66,17.9,17.9,0,0,0,1.76-1.8l-8-.67c-.24-1.38.3-2,1.8-2.21,1.18-.16,2.34-.44,3.5-.67l.14-.55a12.24,12.24,0,0,0-2-1.09c-1.79-.56-2.12-1-1.82-2.9,1.37.49,2.68,1.78,4,.61-.91-1.62-1.66-3.24-2.67-4.69a9.1,9.1,0,0,0-2.22-1.67c2.67-1.32,4.29-.79,5.56,1.72.21.41.74.67,1.12,1l.35-.23a15,15,0,0,1-.44-3.73A14.13,14.13,0,0,1,336.8,12l.35,0a29.06,29.06,0,0,0,.59,3.62c.16.56.77,1,1.18,1.48a5.46,5.46,0,0,0,.9-1.4c.53-2,1.42-3.94.27-6,1.69-.38,3.47,1.75,3.09,3.59a7.59,7.59,0,0,0-.18,2.17,1.52,1.52,0,0,0,.76,1c.24.1.81-.21,1.05-.49a14.24,14.24,0,0,0,1.55-2.22,3.91,3.91,0,0,1,3.46-2c-.69,1.3-1.37,2.43-1.9,3.63a3.91,3.91,0,0,0-.5,2.23c.32,1.36,1.2,1.51,2.2.52a16.92,16.92,0,0,1,1.74-1.92A16.14,16.14,0,0,1,354,15.08l.48.51c-.74,1.3-1.43,2.63-2.23,3.9a25.92,25.92,0,0,0-1.75,2.38,2.12,2.12,0,0,0,.15,1.8c.18.27,1.06.18,1.6.1s1.12-.46,1.7-.56A2.87,2.87,0,0,1,357.25,25c-.7.15-1.63.08-2.18.5-1.44,1.13-2.94,1-4.57.57-.51,1.24.48,1.66,1.14,2.15a2.86,2.86,0,0,1,.86,4.12,16,16,0,0,0-2.14-1.74c-1.37-.76-2.1-.41-2.42,1.12-.4,1.93-.7,3.88-1,5.82-1.92-.42-2.08-.59-2.06-2.66,0-.95,0-2-1-2.28-.28-.08-1.05,1.14-1.4,1.87A18.8,18.8,0,0,0,341.59,37.11Zm2.71-14.49a4.68,4.68,0,0,0,.24.89c.69,1.4-.16,2.26-1.13,2.95a1.84,1.84,0,0,1-2.54,0,2.7,2.7,0,0,1-.77-3.26,3.4,3.4,0,0,1,3.9-1.82,4,4,0,0,1,2.63,3.6c-.12,2.1-2,4-4.56,4.44-1.61.3-4.16-1.37-4.86-3-1-2.4,1.19-7.07,4.45-7.38a10,10,0,0,0,1.6-.51,6.27,6.27,0,0,0-8,6.93,6.87,6.87,0,0,0,8.37,5.9,6,6,0,0,0,4.36-8.4c-1-2.47-3.64-3.67-6.78-2.88-2.2.56-3.42,2.64-3,5.2a3.69,3.69,0,0,0,3.41,3,3.65,3.65,0,0,0,3.82-2.08A2.61,2.61,0,0,0,344.3,22.62Z"/><polygon class="cls-7" points="318.64 35.22 318.45 15.72 217.92 15.72 218.1 35.22 318.64 35.22"/><path id="path5514" class="cls-5" d="M305.87,15.94v5.91"/><path id="path5516" class="cls-5" d="M293,16v9.31"/><path id="path6403" class="cls-5" d="M280.31,15.86v5.91"/><path id="path6405" class="cls-5" d="M254.12,15.86v5.91"/><path id="path6407" class="cls-5" d="M228.88,15.89V21.8"/><path id="path6425" class="cls-5" d="M241.6,15.86v9.31"/><path id="path6425-2" data-name="path6425" class="cls-5" d="M266.27,16.36v9.3"/><path class="cls-5" d="M287.7,50c5.1-3.82.32-8,.32-8H252.35s-4.78,3.5-1,8H288"/><path class="cls-5" d="M256.49,50c-3.83,3.19,0,6.37,0,6.37h26.75c5.74-2.55.16-6.37.16-6.37"/><line class="cls-5" x1="263.49" y1="62.74" x2="263.49" y2="125.81"/><line class="cls-5" x1="269.86" y1="63.06" x2="269.86" y2="126.13"/><line class="cls-5" x1="276.23" y1="62.74" x2="276.87" y2="125.81"/><polyline class="cls-5" points="258.11 56.37 258.4 132.82 281.97 132.82 282.03 56.37"/><path class="cls-5" d="M287.38,146.83H253c-6.69-3.82-.32-7-.32-7h34.4S295.35,143,287.38,146.83Z"/><path class="cls-5" d="M258.4,132.82s-8.22,3.18-.29,7"/><path class="cls-5" d="M282,132.82s8.8,3.18.58,7"/><path class="cls-3" d="M141.46,141a95.79,95.79,0,0,1-30.14,4.92q-32,0-48.22-17.08T46.84,86.63q0-25.41,17.67-44.39t49-19a84.38,84.38,0,0,1,21.4,2.64L132.63,41q-15-3.65-24.23-3.64-22,0-33.74,13.34T63,83.81A50.44,50.44,0,0,0,76.39,118.6q13.44,14.93,37.93,14.93a97,97,0,0,0,13.39-1.36,138.44,138.44,0,0,1-1.55-22,165,165,0,0,0-1.27-20.67h16.57q-.74,12-.73,25.4Q140.73,120.6,141.46,141Z"/></g></g></svg>